<svg width="192" height="34" viewBox="0 0 192 34" fill="none" xmlns="http://www.w3.org/2000/svg">
<g filter="url(#filter0_d_55_9)">
<path d="M11.6034 24.056L9.01144 21.584V15.68L11.6034 13.328V24.056ZM11.5554 1.76V12.488L8.98744 10.16V4.232L11.5554 1.76ZM8.09944 22.208L10.5714 24.8H4.64344L6.99544 22.208H8.09944ZM22.3268 25.112L24.7988 22.52H30.7268L33.0788 25.112H22.3268ZM21.6308 13.328L24.1988 15.824V21.704L21.6308 24.056V13.328ZM24.3908 14.192C23.7988 13.728 23.2388 13.288 22.7108 12.872L24.3908 11.6H30.9427L32.6228 12.872L30.9427 14.192H24.3908ZM22.3028 0.727999H33.0068L30.6788 3.32H24.7508L22.3028 0.727999ZM21.5588 12.488V1.76L24.1268 4.088V10.04L21.5588 12.488ZM43.0581 16.4V21.704L40.4661 24.056V13.328L43.0581 16.4ZM48.4101 15.776L52.1061 19.664L51.8421 23.12C49.5541 20.72 48.3861 19.496 48.3381 19.448C48.3061 19.4 48.2581 19.352 48.1941 19.304C48.1301 19.256 48.0821 19.208 48.0501 19.16L44.4261 15.368L48.4101 15.776ZM40.4661 13.328L43.0581 15.824V21.704L40.4661 24.056V13.328ZM43.2261 14.192C42.6661 13.728 42.1061 13.288 41.5461 12.872L43.2261 11.6H49.8021L51.4821 12.872L49.8021 14.192H43.2261ZM41.1621 0.727999H51.8661L49.5381 3.32H43.6101L41.1621 0.727999ZM40.3941 12.488V1.76L42.9861 4.088V10.04L40.3941 12.488ZM52.6341 1.76V12.488L50.0421 10.16V4.232L52.6341 1.76ZM44.4261 15.368H48.0261C48.5541 15.928 49.3061 16.728 50.2821 17.768C51.2741 18.792 51.8821 19.424 52.1061 19.664L51.8421 23.12C49.5541 20.72 48.3861 19.496 48.3381 19.448C48.3061 19.4 48.2581 19.352 48.1941 19.304C48.1301 19.256 48.0821 19.208 48.0501 19.16L44.4261 15.368ZM58.5334 13.328L61.1254 15.824V21.704L58.5334 24.056V13.328ZM73.1494 24.056L70.5574 21.584V15.68L73.1494 13.328V24.056ZM65.3014 7.184L65.4214 8.24L63.3334 8.048L58.5094 3.56L58.1734 1.496L60.2614 1.688L65.0854 6.128L65.3014 7.184ZM58.4854 12.488V4.64L61.0774 6.992V10.04L58.4854 12.488ZM73.1014 4.64V12.488L70.5094 10.16V7.112L73.1014 4.64ZM66.1174 7.184L66.3334 6.128L71.1574 1.688L73.2454 1.496L72.9094 3.56L68.0854 8.048L65.9974 8.24L66.1174 7.184ZM99.108 25.112L101.58 22.52H107.508L109.86 25.112H99.108ZM98.412 13.328L100.98 15.824V21.704L98.412 24.056V13.328ZM101.172 14.192C100.58 13.728 100.02 13.288 99.492 12.872L101.172 11.6H107.724L109.404 12.872L107.724 14.192H101.172ZM99.084 0.727999H109.788L107.46 3.32H101.532L99.084 0.727999ZM98.34 12.488V1.76L100.908 4.088V10.04L98.34 12.488ZM117.943 25.112L120.415 22.52H126.343L128.671 25.112H117.943ZM129.439 24.056L126.847 21.584V15.68L129.439 13.328V24.056ZM120.007 14.192C119.447 13.744 118.879 13.304 118.303 12.872L120.007 11.6H126.559L128.239 12.872L126.559 14.192H120.007ZM117.919 0.727999H128.647L126.271 3.32H120.391L117.919 0.727999ZM117.151 12.488V1.76L119.743 4.088V10.04L117.151 12.488ZM143.811 24.056L141.219 21.584V15.68L143.811 13.328V24.056ZM135.123 2.888C134.563 2.44 134.003 2.016 133.443 1.616L135.123 0.319999H149.859L151.539 1.616L149.859 2.888H143.739V12.488L141.147 10.16V4.232L142.563 2.888H135.123ZM156.694 25.112L159.166 22.52H165.094L167.446 25.112H156.694ZM155.998 13.328L158.566 15.824V21.704L155.998 24.056V13.328ZM158.758 14.192C158.166 13.728 157.606 13.288 157.078 12.872L158.758 11.6H165.31L166.99 12.872L165.31 14.192H158.758ZM156.67 0.727999H167.374L165.046 3.32H159.118L156.67 0.727999ZM155.926 12.488V1.76L158.494 4.088V10.04L155.926 12.488ZM175.529 25.112L178.001 22.52H183.929L186.257 25.112H175.529ZM187.025 24.056L184.433 21.584V15.68L187.025 13.328V24.056ZM177.593 14.192C177.033 13.744 176.465 13.304 175.889 12.872L177.593 11.6H184.145L185.825 12.872L184.145 14.192H177.593ZM175.505 0.727999H186.233L183.857 3.32H177.977L175.505 0.727999ZM174.737 12.488V1.76L177.329 4.088V10.04L174.737 12.488Z" fill="black"/>
</g>
<defs>
<filter id="filter0_d_55_9" x="0.643433" y="0.320068" width="190.382" height="32.792" filterUnits="userSpaceOnUse" color-interpolation-filters="sRGB">
<feFlood flood-opacity="0" result="BackgroundImageFix"/>
<feColorMatrix in="SourceAlpha" type="matrix" values="0 0 0 0 0 0 0 0 0 0 0 0 0 0 0 0 0 0 127 0" result="hardAlpha"/>
<feOffset dy="4"/>
<feGaussianBlur stdDeviation="2"/>
<feComposite in2="hardAlpha" operator="out"/>
<feColorMatrix type="matrix" values="0 0 0 0 0 0 0 0 0 0 0 0 0 0 0 0 0 0 0.25 0"/>
<feBlend mode="normal" in2="BackgroundImageFix" result="effect1_dropShadow_55_9"/>
<feBlend mode="normal" in="SourceGraphic" in2="effect1_dropShadow_55_9" result="shape"/>
</filter>
</defs>
</svg>
